<svg xmlns="http://www.w3.org/2000/svg" viewBox="0 0 341.42 157.42"><g id="Layer_2" data-name="Layer 2"><g id="Layer_1-2" data-name="Layer 1"><path d="M18,84.39h0a6.65,6.65,0,0,1,6.65-6.52l51.74.52A6.65,6.65,0,0,1,83,85h0a6.66,6.66,0,0,1-6.65,6.52L24.56,91A6.65,6.65,0,0,1,18,84.39Z"/><path d="M8.11,116.92h0a6.66,6.66,0,0,1,6.65-6.52l85.76.77a6.66,6.66,0,0,1,6.52,6.65h0a6.65,6.65,0,0,1-6.65,6.53l-85.75-.78A6.48,6.48,0,0,1,8.11,116.92Z"/><path d="M0,52.61H0a6.65,6.65,0,0,1,6.65-6.53l85.75.78a6.65,6.65,0,0,1,6.53,6.65h0A6.66,6.66,0,0,1,92.28,60L6.52,59.26A6.69,6.69,0,0,1,0,52.61Z"/><path d="M132.64,92.63a76.9,76.9,0,0,0,62.28,36.58,3.82,3.82,0,1,0,.29-7.64,69.42,69.42,0,0,1-56.15-32.95,3.8,3.8,0,0,0-5.25-1.26A3.72,3.72,0,0,0,132.64,92.63Z"/><path d="M121.1,55.09a76.67,76.67,0,0,0,4.7,23.66,3.8,3.8,0,0,0,3.42,2.47,3.47,3.47,0,0,0,1.5-.26A3.85,3.85,0,0,0,132.93,76a68.08,68.08,0,0,1-4.24-21.28,3.82,3.82,0,0,0-4-3.63A3.89,3.89,0,0,0,121.1,55.09Z"/><path d="M108.8,50.54a88.89,88.89,0,0,0,60.54,86.17l-.14,4.88a13.74,13.74,0,0,0,13.51,14.1L263,157.42a13.72,13.72,0,0,0,14.1-13.51l.14-4.88a86.71,86.71,0,0,0,28.11-13.94,3.83,3.83,0,1,0-4.6-6.12,81,81,0,0,1-50,15.91l-54.92-1.11a81.26,81.26,0,0,1-79.56-83,2.17,2.17,0,0,1,2.19-2.08l213.23,4.51a2.16,2.16,0,0,1,2.08,2.19,80.08,80.08,0,0,1-.81,9.85L210.84,62.74a3.83,3.83,0,1,0-.13,7.65L331.53,73a80.3,80.3,0,0,1-3.3,10.43l-36.17-.72a3.83,3.83,0,0,0-.14,7.65l32.9.72a79.1,79.1,0,0,1-13.16,18.63,3.79,3.79,0,0,0,5.52,5.19,88.89,88.89,0,0,0,24.24-59.09A9.77,9.77,0,0,0,335,46.4a16,16,0,0,0-3.52-10.18A33.13,33.13,0,0,0,299.54,8.9a33.65,33.65,0,0,0-12,2,16.14,16.14,0,0,0-30.18,1.81,38.37,38.37,0,0,0-4.82-.43A33.32,33.32,0,0,0,236.59,16a33.12,33.12,0,0,0-54.19-3.52,21.88,21.88,0,0,0-5.28-.64,16.25,16.25,0,0,1-4.07-.58,14.43,14.43,0,0,1-3.39-2.79c-2.28-2.23-5.17-4.91-9-5S153.84,5.9,151.43,8a16.74,16.74,0,0,1-3.54,2.61,13.55,13.55,0,0,1-4.19.42c-3.19.12-7.29.14-10.15,2.9s-3.11,6.79-3.31,10a15.5,15.5,0,0,1-.58,4.07,14.28,14.28,0,0,1-2.78,3.38c-2.24,2.28-4.92,5.17-5,9,0,.32,0,.73.08,1.05l-3.25-.1C113.35,41.4,108.84,45.64,108.8,50.54ZM280.73,14.42a34.79,34.79,0,0,0-7.07,6.13,35.08,35.08,0,0,0-9-5.64,8.5,8.5,0,0,1,16.07-.49Zm29.75,31.15a8.5,8.5,0,0,1,16.93.31Zm-13.67-3.49a2,2,0,1,1,4.08.07l-.07,3.15-4.18-.09h0S296.72,42.05,296.81,42.08Zm-12,1.57h0l.09-1.82a13.81,13.81,0,0,1,24.47-8.48,12.91,12.91,0,0,0-3.07,2.81,9.43,9.43,0,0,0-7.37-3.76,9.66,9.66,0,0,0-9.83,9.43L289,45l-4.08-.07A6.23,6.23,0,0,0,284.8,43.65Zm-6.11-17.5a25.53,25.53,0,0,1,42.76,4.31,17.76,17.76,0,0,0-2.31-.2,21.12,21.12,0,0,0-2.49.17A21.35,21.35,0,0,0,281.13,30,23.49,23.49,0,0,0,278.69,26.15ZM250.19,44.2a2,2,0,0,1,1.72-.85,2.1,2.1,0,0,1,1.63,1Zm-7.94-.2-4.17-.09a13.8,13.8,0,0,1,27.5.57l-4.17-.09A9.63,9.63,0,0,0,252,35.7a9.74,9.74,0,0,0-9.79,8.3Zm-16-.31a25.61,25.61,0,0,1,51.14,1.11l-4.18-.09a21.43,21.43,0,0,0-42.78-.93Zm-20.1-10.62a2,2,0,1,1,4.08.07l-.17,10.19-4.18-.09h0Zm-12,10,.32-10.37a13.78,13.78,0,0,1,14.1-13.51,13.94,13.94,0,0,1,13.37,11.92,32.4,32.4,0,0,0-3.22,12.4l-1.11,0,.17-10.19a9.66,9.66,0,0,0-9.42-9.84,9.81,9.81,0,0,0-9.85,9.52l-.18,10.2L194.15,43ZM182.7,32.66a25.55,25.55,0,0,1,47.62-12.34,37.17,37.17,0,0,0-3.11,3,21.43,21.43,0,0,0-40.43,9.4l-.18,10.2-4.17-.09Zm-26.41,8.47a3.41,3.41,0,1,1,6.82.16l-.23,1.08-6.41-.17A10.77,10.77,0,0,1,156.29,41.13Zm-11.72-.2a15.33,15.33,0,0,1,15.67-15.11,15.51,15.51,0,0,1,14.88,13L175,42.65l-4.28-.11c0-.41.05-.71,0-1.12a11,11,0,0,0-22-.4c0,.32,0,.73.08,1L144.33,42A1.39,1.39,0,0,1,144.57,40.93Zm-15.18-.34c0-.92,1.69-2.59,2.89-3.87a19.72,19.72,0,0,0,4.29-5.61,20,20,0,0,0,1.18-6.81c.09-1.82.21-4.25,1-4.91s3.13-.75,5-.75a18.6,18.6,0,0,0,6.84-.87,21,21,0,0,0,5.8-4.06c1.28-1.15,3-2.71,4-2.71s2.6,1.69,3.87,2.89a19.77,19.77,0,0,0,5.62,4.29,20,20,0,0,0,6.8,1.18c.51,0,.9.09,1.41.1a42.78,42.78,0,0,0-2,5.71A22.92,22.92,0,0,0,136.8,40.88a3.47,3.47,0,0,0,0,1l-6.92-.18A2.51,2.51,0,0,1,129.39,40.59Zm47.48,98.68a87.57,87.57,0,0,0,18.81,2.46l54.92,1.12a87,87,0,0,0,19-1.6v2.86a6.17,6.17,0,0,1-6.34,6.09L183,148.47a6.17,6.17,0,0,1-6.09-6.34Z"/></g></g></svg>