<svg xmlns="http://www.w3.org/2000/svg" viewBox="0 0 302.92 240.93"><g id="Layer_2" data-name="Layer 2"><g id="Layer_1-2" data-name="Layer 1"><path d="M35.71,207.17h0a6.65,6.65,0,0,1,.91-9.27l40-32.84a6.65,6.65,0,0,1,9.27.91h0a6.65,6.65,0,0,1-.91,9.27L45,208.07A6.66,6.66,0,0,1,35.71,207.17Z"/><path d="M49,238.47h0a6.66,6.66,0,0,1,.9-9.27l66.23-54.48a6.65,6.65,0,0,1,9.27.91h0a6.66,6.66,0,0,1-.9,9.27L58.27,239.38A6.48,6.48,0,0,1,49,238.47Z"/><path d="M1.47,194.39h0a6.65,6.65,0,0,1,.91-9.27l66.23-54.48a6.66,6.66,0,0,1,9.27.9h0a6.65,6.65,0,0,1-.91,9.27L10.74,195.3A6.68,6.68,0,0,1,1.47,194.39Z"/><path d="M118.44,144a76.94,76.94,0,0,0,71.64,9.13,3.82,3.82,0,1,0-2.73-7.14,69.46,69.46,0,0,1-64.59-8.2,3.8,3.8,0,0,0-5.32.9A3.72,3.72,0,0,0,118.44,144Z"/><path d="M93.06,114a76.63,76.63,0,0,0,13.63,19.9,3.8,3.8,0,0,0,4.11.93,3.59,3.59,0,0,0,1.28-.83,3.84,3.84,0,0,0,.1-5.39,67.73,67.73,0,0,1-12.27-17.9,3.82,3.82,0,0,0-5.07-1.78A3.91,3.91,0,0,0,93.06,114Z"/><path d="M79.45,112a88.85,88.85,0,0,0,88.34,57.32l1.69,4.58a13.74,13.74,0,0,0,17.8,8l75.11-28.38a13.73,13.73,0,0,0,8-17.8l-1.69-4.58a86.77,86.77,0,0,0,20.87-23.42,3.83,3.83,0,1,0-6.55-4,81.1,81.1,0,0,1-40.47,33.45l-51.37,19.47A81.25,81.25,0,0,1,86.43,109.52a2.16,2.16,0,0,1,1.25-2.75L287.16,31.31a2.16,2.16,0,0,1,2.75,1.25A79.59,79.59,0,0,1,292.84,42L178.66,85.23a3.83,3.83,0,0,0,2.74,7.15l113-42.73a82.3,82.3,0,0,1,.84,10.91L261.45,73.41a3.82,3.82,0,0,0,2.73,7.14L295,68.93a78.88,78.88,0,0,1-5.26,22.19,3.79,3.79,0,0,0,7.07,2.76A88.87,88.87,0,0,0,297.19,30a9.75,9.75,0,0,0-9.49-6.3,16.06,16.06,0,0,0-7.06-8.13A33.15,33.15,0,0,0,240.83,2.15a34,34,0,0,0-10.39,6.33,16.14,16.14,0,0,0-27.32,13,39,39,0,0,0-4.63,1.39,33.51,33.51,0,0,0-13.42,9.38,33.12,33.12,0,0,0-51.58,17,22.67,22.67,0,0,0-5.14,1.38,15.49,15.49,0,0,1-4,1,14.26,14.26,0,0,1-4.17-1.32c-3-1.22-6.64-2.62-10.27-1.3s-5.36,4.87-6.8,7.75a16.42,16.42,0,0,1-2.3,3.74,13.24,13.24,0,0,1-3.73,1.95c-2.92,1.31-6.71,2.87-8.33,6.49s-.36,7.46.67,10.53a16,16,0,0,1,1,4,14.71,14.71,0,0,1-1.32,4.18c-1.23,2.94-2.63,6.63-1.3,10.26.15.28.31.65.46.93l-3,1.13C80.25,101.85,77.66,107.46,79.45,112Zm146-97.72a34.33,34.33,0,0,0-4.26,8.33,34.92,34.92,0,0,0-10.46-1.87,8.5,8.5,0,0,1,14.72-6.46Zm39.24,17.78a8.49,8.49,0,0,1,15.81-6Zm-14,1.87a2,2,0,0,1,3.81-1.46l1.11,3-3.91,1.47h0S250.59,34,250.69,34ZM240.14,39.9h0l-.6-1.72a13.81,13.81,0,0,1,19.53-17,13.07,13.07,0,0,0-1.8,3.75,9.44,9.44,0,0,0-8.24-.73,9.66,9.66,0,0,0-5.6,12.41l1.11,3L240.73,41A5.48,5.48,0,0,0,240.14,39.9ZM227.93,26a25.54,25.54,0,0,1,41.28-12,19.07,19.07,0,0,0-2.22.68,21.12,21.12,0,0,0-2.25,1.09,21.35,21.35,0,0,0-33.12,12.83A23.38,23.38,0,0,0,227.93,26ZM208.24,53.33a2,2,0,0,1,1.28-1.43,2.1,2.1,0,0,1,1.87.29Zm-7.44,2.79-3.91,1.47a13.8,13.8,0,0,1,25.73-9.74l-3.91,1.47a9.63,9.63,0,0,0-11.93-4.57,9.75,9.75,0,0,0-6,11.37Zm-15,5.68a25.6,25.6,0,0,1,47.85-18.06l-3.91,1.47a21.43,21.43,0,0,0-40,15.12Zm-22.61-2.35A2,2,0,1,1,167,58l3.64,9.52L166.77,69h0Zm-7.41,13.74-3.58-9.74a13.79,13.79,0,0,1,8-17.8,13.94,13.94,0,0,1,16.86,6.07,32.21,32.21,0,0,0,1.65,12.7l-1.05.38-3.65-9.52a9.65,9.65,0,0,0-12.41-5.6,9.82,9.82,0,0,0-5.59,12.51l3.65,9.52-3.91,1.48Zm-14.5-5.35A25.56,25.56,0,0,1,180.89,38.6a37.6,37.6,0,0,0-1.77,3.95,21.44,21.44,0,0,0-34,23.83l3.65,9.53-3.91,1.47ZM120,85.56a3.41,3.41,0,0,1,6.39-2.4l.18,1.08-6,2.24A8.87,8.87,0,0,1,120,85.56ZM109,89.76a15.32,15.32,0,0,1,8.89-19.87,15.51,15.51,0,0,1,18.65,6.46L137.91,80l-4,1.5c-.17-.38-.22-.68-.38-1a11,11,0,0,0-20.58,7.85c.15.28.32.66.47.94l-4.19,1.62A1.38,1.38,0,0,1,109,89.76ZM94.83,95.11c-.35-.85.6-3,1.24-4.67A19.94,19.94,0,0,0,98,83.63a20,20,0,0,0-1.45-6.76c-.6-1.72-1.39-4-.93-4.91s2.62-1.87,4.33-2.56a18.67,18.67,0,0,0,6-3.36,21.27,21.27,0,0,0,3.86-5.93c.75-1.55,1.82-3.65,2.67-4s3,.6,4.67,1.23a19.73,19.73,0,0,0,6.81,1.89,20,20,0,0,0,6.76-1.45c.47-.18.87-.25,1.34-.43a40.27,40.27,0,0,0,.32,6,22.93,22.93,0,0,0-30.54,29.23,3.6,3.6,0,0,0,.37,1L95.69,96A2.66,2.66,0,0,1,94.83,95.11Zm80.9,73.8a86.67,86.67,0,0,0,18.36-4.75l51.37-19.47a87.11,87.11,0,0,0,17-8.57l1.06,2.66a6.17,6.17,0,0,1-3.6,8l-75.11,28.38a6.18,6.18,0,0,1-8-3.61Z"/></g></g></svg>